<svg xmlns="http://www.w3.org/2000/svg" viewBox="0 0 299.07 449.41"><defs><style>.cls-1{fill:#ffc82c;}.cls-2{opacity:0.39;}.cls-3{fill:#f2f2f2;}.cls-4{fill:#004c37;}.cls-5{fill:#006837;}</style></defs><title>Asset 2</title><g id="Layer_2" data-name="Layer 2"><g id="Layer_3" data-name="Layer 3"><ellipse class="cls-1" cx="128.18" cy="297.35" rx="157" ry="122" transform="translate(-195.62 296.94) rotate(-66.61)"/><g class="cls-2"><ellipse class="cls-3" cx="164.08" cy="245.96" rx="52.94" ry="41.14" transform="translate(-126.81 298.9) rotate(-66.61)"/></g><g class="cls-2"><ellipse class="cls-3" cx="101.02" cy="297.63" rx="24.67" ry="19.17" transform="translate(-212.26 272.19) rotate(-66.61)"/></g></g><g id="Layer_2-2" data-name="Layer 2"><path class="cls-4" d="M165.57,159.24c7.7,10.27,52.23,5.59,79-15.94,3.88-3.12,14.43-18.07,35.38-47.85,15.33-21.78,20.8-30,18.68-31.93-2.73-2.45-14.92,8.45-39.12,20.4-22.94,11.33-29,9.93-44,17.18C183.37,116.63,157.74,148.8,165.57,159.24Z"/><path class="cls-5" d="M166.85,157c12.47-13.06,6.92-72.28-19.13-103.08-3.78-4.46-21.89-14.95-58-35.74C63.36,2.92,53.37-2.39,51.06,1c-3,4.33,10.21,18.08,24.64,47.84C89.39,77,87.67,85.57,96.43,104.1,115.19,143.73,154.15,170.25,166.85,157Z"/></g></g></svg>