<?xml version="1.0" encoding="utf-8"?>
<!-- Generator: Adobe Illustrator 22.0.1, SVG Export Plug-In . SVG Version: 6.00 Build 0)  -->
<svg version="1.1" xmlns="http://www.w3.org/2000/svg" xmlns:xlink="http://www.w3.org/1999/xlink" x="0px" y="0px"
	 viewBox="0 0 1366 768" style="enable-background:new 0 0 1366 768;" xml:space="preserve">
<style type="text/css">
	.st0{display:none;}
	.st1{display:inline;}
	.st2{fill:#54C27B;}
	.st3{fill:#FFFFFF;}
</style>
<g id="Layer_1" class="st0">
	<g class="st1">
		<rect x="-13.5" y="-8.5" class="st2" width="1397" height="792"/>
		<path d="M1383-8v791H-13V-8H1383 M1384-9H-14v793h1398V-9L1384-9z"/>
	</g>
</g>
<g id="Layer_2">
	<g>
		
			<ellipse transform="matrix(0.9997 -2.509801e-02 2.509801e-02 0.9997 -8.8608 12.938)" class="st3" cx="511" cy="359.5" rx="175.5" ry="93"/>
	</g>
	<g>
		
			<ellipse transform="matrix(0.9965 -8.349041e-02 8.349041e-02 0.9965 -20.1894 59.2439)" class="st3" cx="698.3" cy="271" rx="180.5" ry="98.5"/>
	</g>
	<g>
		
			<ellipse transform="matrix(0.9997 -2.509801e-02 2.509801e-02 0.9997 -10.0269 18.888)" class="st3" cx="747.4" cy="408.9" rx="191" ry="75"/>
	</g>
	<g>
		
			<ellipse transform="matrix(0.2117 -0.9773 0.9773 0.2117 435.7866 1150.5621)" class="st3" cx="931.1" cy="305.1" rx="112" ry="150.5"/>
	</g>
	<g>
		
			<ellipse transform="matrix(1.141423e-02 -0.9999 0.9999 1.141423e-02 594.4101 1362.0049)" class="st3" cx="986" cy="380.4" rx="92.5" ry="172.1"/>
	</g>
</g>
</svg>
